<?xml version="1.0" encoding="utf-8"?>
<!-- Generator: Adobe Illustrator 24.2.3, SVG Export Plug-In . SVG Version: 6.00 Build 0)  -->
<svg version="1.1" id="Layer_2_1_" xmlns="http://www.w3.org/2000/svg" xmlns:xlink="http://www.w3.org/1999/xlink" x="0px" y="0px"
	 viewBox="0 0 512 512" style="enable-background:new 0 0 512 512;" xml:space="preserve">
<g>
	<path d="M478.9,221.9l-246.2-26.7h-0.1l-67.4,35.2c-0.1,0-0.1,0.1-0.1,0.1c0,0,0,0.1,0.1,0.1h297.4l16.2-8.5c0.1,0,0.1-0.1,0.1-0.1
		C479,222,479,221.9,478.9,221.9C478.9,221.9,478.9,221.9,478.9,221.9L478.9,221.9z"/>
	<path d="M256,66.6c71,0,128.6,57.6,128.6,128.6c0,2.2,0,4.3-0.2,6.5l9.9,1.1c0.1-2.5,0.2-5,0.2-7.6
		c-0.1-76.5-62.2-138.5-138.8-138.4c-59,0.1-111.4,37.4-130.8,93.1h10.6C154.5,99.8,202.4,66.6,256,66.6z"/>
	<path d="M256,323.9c-71,0-128.7-57.5-128.7-128.6c0,0,0,0,0-0.1c0-2.2,0.1-4.4,0.2-6.5l-9.9-1.1c-0.1,2.5-0.2,5-0.2,7.6
		c0.1,76.5,62.2,138.5,138.7,138.4c59-0.1,111.5-37.5,130.8-93.2h-10.5C357.5,290.6,309.6,323.8,256,323.9z"/>
	<path d="M279.2,195.2L279.2,195.2l67.4-35.1c0.1,0,0.1-0.1,0.1-0.1c0,0,0,0,0,0c0,0,0-0.1-0.1-0.1H49.2l-16.2,8.5
		c-0.1,0-0.1,0.1-0.1,0.1c0,0,0,0.1,0.1,0.1L279.2,195.2z"/>
</g>
</svg>
